<?xml version="1.0" encoding="utf-8"?>
<!-- Uploaded to: SVG Repo, www.svgrepo.com, Generator: SVG Repo Mixer Tools -->
<svg fill="#000000" width="800px" height="800px" viewBox="0 0 32 32" version="1.1" xmlns="http://www.w3.org/2000/svg">
<title>relic-blade</title>
<path d="M20.48 4.619l-0.071 2.265-1.593 0.425-0.071 1.77-8.53 8.495c0.054 1.561-1.068 2.634-2.053 2.548-1.476-0.129-2.059-1.067-2.053-2.336-0.985 1.071-1.514 2.43-1.522 3.787 1.009 0 2.021 0.274 2.915 0.814l-0.169 0.603c-1.535 1.084-3.246 2.879-4.077 4.332-0.102 0.179-0.186 0.344-0.254 0.497l-1.99 0.557-0.093 2.598 2.598-0.093 0.561-2.008c0.149-0.067 0.309-0.148 0.481-0.247 1.447-0.828 3.234-2.528 4.319-4.059l0.605-0.169c0.522 0.886 0.797 1.887 0.8 2.874 1.394 0 2.812-0.53 3.893-1.557-1.507-0.221-2.393-1.102-2.301-2.088 0.152-1.612 1.090-2.023 2.442-1.982l8.672-8.672 1.416-0.035 0.389-1.416 2.478-0.106 2.655-9.451-9.45 2.655zM26.38 10.254l-2.442 0.072-0.401 1.458-3.681 0.146 0.109-3.681 1.603-0.437 0.073-2.296 6.56-1.821-1.822 6.56z"></path>
</svg>