<?xml version="1.0" standalone="no"?>
<!DOCTYPE svg PUBLIC "-//W3C//DTD SVG 20010904//EN"
 "http://www.w3.org/TR/2001/REC-SVG-20010904/DTD/svg10.dtd">
<svg version="1.0" xmlns="http://www.w3.org/2000/svg"
 width="500.000000pt" height="500.000000pt" viewBox="0 0 500.000000 500.000000"
 preserveAspectRatio="xMidYMid meet">

<g transform="translate(0.000000,500.000000) scale(0.100000,-0.100000)"
fill="#000000" stroke="none">
<path d="M2555 4419 c17 -33 17 -34 -1 -18 -37 32 -47 33 -39 8 4 -13 10 -31
12 -39 3 -8 -5 0 -17 19 l-21 34 -21 -21 c-18 -17 -19 -23 -8 -36 14 -18 0
-22 -17 -5 -7 7 -18 1 -37 -21 -32 -38 -32 -47 -5 -55 17 -6 19 -9 8 -16 -8
-5 -9 -9 -4 -9 6 0 24 -12 40 -26 21 -17 23 -22 8 -15 -36 18 -36 13 -1 -16
46 -39 67 -65 68 -85 0 -9 6 -29 12 -44 10 -22 10 -28 0 -32 -7 -2 -21 -21
-32 -41 -16 -32 -17 -47 -10 -102 16 -119 27 -164 64 -263 40 -108 52 -131 42
-76 -7 35 -7 35 8 10 12 -21 12 -27 0 -41 -10 -11 -12 -29 -8 -66 5 -42 3 -54
-13 -70 -14 -14 -22 -40 -27 -88 -4 -37 -13 -99 -21 -137 -21 -100 -19 -120
20 -177 53 -77 49 -103 -31 -170 -35 -30 -64 -60 -64 -68 0 -7 -12 -20 -27
-29 -16 -10 -45 -29 -66 -42 -38 -25 -38 -25 -58 -6 -19 20 -19 20 36 113 30
51 55 99 55 106 0 35 -133 165 -169 165 -6 0 -11 -15 -11 -34 0 -37 36 -76 71
-76 16 0 53 -39 45 -47 -2 -2 -14 0 -27 5 -13 5 -50 12 -81 16 l-58 7 6 -33 5
-33 -23 28 c-13 15 -32 27 -42 27 -10 0 -87 65 -170 143 -219 208 -581 542
-651 600 -104 87 -345 233 -345 209 0 -16 72 -127 124 -192 30 -37 119 -127
198 -201 367 -343 718 -683 718 -695 0 -7 13 -20 29 -29 41 -21 45 -32 10 -27
-27 4 -29 2 -29 -29 0 -19 5 -51 11 -72 16 -59 4 -68 -19 -14 -24 53 -56 73
-97 57 -30 -11 -30 -13 -9 -45 16 -24 157 -125 174 -125 5 0 37 24 72 53 103
86 94 81 122 60 21 -15 24 -23 19 -56 -5 -33 -2 -41 26 -66 33 -30 80 -45 106
-35 8 4 15 2 15 -3 0 -5 -37 -30 -83 -56 -124 -70 -247 -163 -247 -187 0 -12
-23 -42 -56 -73 -72 -67 -81 -72 -109 -57 -29 16 -52 4 -99 -52 l-36 -42 0
-99 c0 -84 -3 -103 -20 -128 -12 -15 -40 -79 -64 -142 -41 -108 -90 -198 -142
-260 -13 -16 -24 -37 -24 -47 0 -17 -55 -60 -78 -60 -6 0 -34 -16 -63 -35 -30
-19 -61 -35 -69 -35 -9 0 -21 -5 -26 -10 -6 -6 -20 -12 -32 -15 -12 -2 -32
-11 -44 -19 -12 -9 -35 -16 -50 -16 -22 0 -28 -5 -28 -22 0 -13 4 -29 9 -36
13 -21 135 -34 200 -22 33 6 107 8 181 4 l125 -7 13 35 c6 19 12 53 12 76 0
40 5 46 134 174 73 73 154 152 179 175 38 34 49 54 67 112 11 38 25 73 30 76
17 11 11 58 -11 81 l-22 23 42 50 41 49 105 7 105 7 55 -50 c72 -66 197 -129
273 -138 l58 -6 11 -77 c14 -93 41 -168 88 -241 40 -62 42 -76 18 -103 -17
-18 -17 -20 7 -39 14 -11 47 -31 75 -45 44 -23 61 -25 155 -25 100 1 113 -1
260 -48 120 -38 166 -58 205 -88 46 -35 50 -42 48 -76 -4 -63 -55 -169 -89
-185 -30 -13 -31 -42 -3 -67 17 -15 35 -19 88 -18 107 2 145 31 211 164 18 36
46 84 61 107 31 45 34 57 19 76 -5 7 -21 26 -35 44 -15 18 -54 49 -88 70 -94
56 -131 87 -262 219 -99 99 -132 126 -189 153 -68 32 -86 34 -143 16 l-23 -7
0 147 0 147 30 35 c22 25 30 44 30 73 0 21 -4 42 -10 45 -38 23 -69 285 -36
298 11 4 13 16 9 44 -3 21 -10 42 -14 47 -5 6 -9 16 -9 23 0 7 -13 35 -30 61
-16 27 -30 54 -30 60 0 6 11 27 24 47 14 20 28 57 31 83 11 81 14 89 65 149
27 32 62 81 76 108 15 28 28 52 30 54 1 1 20 -5 41 -14 32 -14 42 -26 56 -64
9 -25 41 -79 72 -119 45 -61 115 -206 115 -240 0 -4 -19 -18 -42 -30 -24 -12
-59 -31 -78 -42 -19 -11 -45 -20 -57 -20 -28 0 -38 -17 -22 -36 13 -16 46 -15
111 1 21 6 29 2 44 -20 13 -19 14 -29 5 -38 -17 -17 -14 -74 5 -81 25 -9 91
-7 140 5 l44 11 0 148 c0 126 -3 154 -20 193 -11 25 -27 97 -36 159 -17 123
-41 190 -99 268 -19 26 -35 57 -35 68 0 12 -9 44 -20 73 -11 28 -20 56 -19 62
4 31 -4 48 -42 91 -37 42 -42 54 -49 118 -10 88 -44 141 -117 180 -28 16 -63
45 -78 65 -46 62 -108 123 -126 123 -9 0 -24 -9 -34 -20 -12 -13 -31 -20 -53
-20 -22 0 -47 -9 -69 -26 l-33 -25 -1 43 c0 24 -4 66 -10 93 -5 28 -14 79 -19
115 -6 35 -15 67 -21 71 -8 5 -8 8 -1 13 17 10 2 38 -16 31 -13 -5 -13 -2 2
13 14 16 15 27 8 53 -5 20 -15 33 -22 31 -11 -3 -11 0 -1 12 10 12 6 25 -20
71 -31 55 -32 56 -52 38 -20 -18 -20 -18 -8 6 11 20 10 26 -16 53 -40 42 -97
69 -160 75 l-55 6 17 -34z"/>
</g>
</svg>
