<?xml version="1.0" encoding="utf-8"?>
<!-- Uploaded to: SVG Repo, www.svgrepo.com, Generator: SVG Repo Mixer Tools -->
<svg width="800px" height="800px" viewBox="0 0 1024 1024" class="icon"  version="1.1" xmlns="http://www.w3.org/2000/svg"><path d="M82.432 618.780444h842.6496v129.888712H82.432z" fill="#DD852C" /><path d="M857.315556 488.891733H150.175289c-22.880711 0-41.437867 18.682311-41.437867 41.722311v88.1664h790.016v-88.1664c0-23.04-18.557156-41.722311-41.437866-41.722311z" fill="#E6E6E6" /><path d="M234.928356 488.891733h-77.482667c-26.897067 0-48.708267 21.959111-48.708267 49.038223v80.850488h77.482667v-80.850488c0-27.079111 21.8112-49.038222 48.708267-49.038223z" fill="#CCCCCC" /><path d="M753.709511 748.669156h93.525333v94.151111h-93.525333zM160.278756 748.669156h93.513955v94.151111h-93.513955zM854.141156 489.073778V227.089067c0-31.652978-25.474844-57.309867-56.911645-57.309867H210.261333c-31.4368 0-56.911644 25.656889-56.911644 57.309867v261.984711" fill="#DD852C" /><path d="M682.404978 377.901511a201.3184 201.3184 0 0 1-53.384534 66.503111 197.916444 197.916444 0 0 1-125.280711 44.487111c-78.142578 0-145.772089-45.192533-178.642489-110.990222a201.295644 201.295644 0 0 1 101.865245-95.607467 197.848178 197.848178 0 0 1 76.788622-15.394133c78.165333 0.011378 145.783467 45.203911 178.653867 111.0016z" fill="#CCCCCC" /><path d="M682.404978 377.901511a201.3184 201.3184 0 0 1-53.384534 66.503111 175.217778 175.217778 0 0 1-21.139911 1.240178c-93.832533 0-171.064889-71.486578-180.918044-163.339378a197.848178 197.848178 0 0 1 76.788622-15.394133c78.165333 0 145.783467 45.192533 178.653867 110.990222z" fill="#E6E6E6" /><path d="M925.070222 603.9552h-11.582578v-66.025244a63.943111 63.943111 0 0 0-44.600888-60.996267V227.089067c0-39.776711-32.142222-72.146489-71.657245-72.146489H210.261333c-39.503644 0-71.645867 32.3584-71.645866 72.146489v94.993066a14.791111 14.791111 0 0 0 14.734222 14.836623 14.791111 14.791111 0 0 0 14.734222-14.836623v-94.993066c0-23.426844 18.921244-42.473244 42.177422-42.473245h586.979556c23.256178 0 42.177422 19.0464 42.177422 42.473245v246.977422H612.5568a215.426844 215.426844 0 0 0 83.012267-89.4976 14.870756 14.870756 0 0 0 0-13.334756c-36.716089-73.500444-110.216533-119.159467-191.817956-119.159466s-155.113244 45.659022-191.829333 119.159466a14.939022 14.939022 0 0 0 0 13.334756 217.088 217.088 0 0 0 26.5216 40.834844 14.654578 14.654578 0 0 0 20.741689 1.968356 14.904889 14.904889 0 0 0 1.9456-20.8896 188.177067 188.177067 0 0 1-19.387734-28.580978c32.699733-59.505778 94.1056-96.1536 162.008178-96.1536s129.297067 36.6592 161.9968 96.164978c-32.699733 59.505778-94.1056 96.164978-161.9968 96.164978-37.523911 0-73.659733-11.252622-104.482133-32.517689a14.677333 14.677333 0 0 0-20.48 3.845689 14.893511 14.893511 0 0 0 3.822933 20.616533c4.118756 2.844444 8.328533 5.518222 12.606578 8.055467H168.072533v-102.525156c0-8.192-6.599111-14.836622-14.734222-14.836622s-14.734222 6.633244-14.734222 14.836622v105.403733a63.920356 63.920356 0 0 0-44.600889 60.996267v66.025245H82.432a14.791111 14.791111 0 0 0-14.734222 14.836622v129.888711a14.791111 14.791111 0 0 0 14.734222 14.836622h63.112533v79.337245a14.791111 14.791111 0 0 0 14.734223 14.825244h93.513955a14.791111 14.791111 0 0 0 14.734222-14.825244v-79.337245h72.192c8.135111 0 14.734222-6.644622 14.734223-14.836622s-6.599111-14.836622-14.734223-14.836622H97.166222v-100.226845h632.433778c8.146489 0 14.734222-6.644622 14.734222-14.836622s-6.587733-14.836622-14.734222-14.836622H123.483022V537.941333c0-18.852978 15.234844-34.2016 33.974045-34.2016h692.599466c18.727822 0 33.974044 15.348622 33.974045 34.2016v66.025245h-106.507378c-8.135111 0-14.734222 6.644622-14.734222 14.836622s6.599111 14.836622 14.734222 14.836622H910.336V733.866667H388.630756c-8.135111 0-14.734222 6.644622-14.734223 14.836622s6.599111 14.836622 14.734223 14.836622h350.344533v79.337245c0 8.180622 6.587733 14.825244 14.734222 14.825244h93.513956c8.146489 0 14.734222-6.644622 14.734222-14.825244v-79.337245h63.112533a14.791111 14.791111 0 0 0 14.734222-14.836622V618.791822a14.791111 14.791111 0 0 0-14.734222-14.836622zM239.058489 763.505778v64.489244h-64.056889v-64.489244h64.056889z m593.430755 64.489244h-64.045511v-64.489244h64.045511v64.489244z" fill="" /></svg>