<?xml version="1.0" encoding="UTF-8" standalone="no"?>
<svg
   xmlns:dc="http://purl.org/dc/elements/1.1/"
   xmlns:cc="http://creativecommons.org/ns#"
   xmlns:rdf="http://www.w3.org/1999/02/22-rdf-syntax-ns#"
   xmlns:svg="http://www.w3.org/2000/svg"
   xmlns="http://www.w3.org/2000/svg"
   xmlns:sodipodi="http://sodipodi.sourceforge.net/DTD/sodipodi-0.dtd"
   xmlns:inkscape="http://www.inkscape.org/namespaces/inkscape"
   version="1.0"
   width="400.000000pt"
   height="400.000000pt"
   viewBox="0 0 400.000000 400.000000"
   preserveAspectRatio="xMidYMid meet"
   id="svg10422"
   sodipodi:docname="campfire-colour.svg"
   inkscape:version="0.92.1 r15371">
  <defs
     id="defs10426" />
  <sodipodi:namedview
     pagecolor="#ffffff"
     bordercolor="#666666"
     borderopacity="1"
     objecttolerance="10"
     gridtolerance="10"
     guidetolerance="10"
     inkscape:pageopacity="0"
     inkscape:pageshadow="2"
     inkscape:window-width="1366"
     inkscape:window-height="705"
     id="namedview10424"
     showgrid="false"
     inkscape:snap-global="false"
     inkscape:zoom="0.95111215"
     inkscape:cx="266.66667"
     inkscape:cy="266.66667"
     inkscape:window-x="-8"
     inkscape:window-y="-8"
     inkscape:window-maximized="1"
     inkscape:current-layer="svg10422" />
  <metadata
     id="metadata10412">
Created by potrace 1.15, written by Peter Selinger 2001-2017
<rdf:RDF>
  <cc:Work
     rdf:about="">
    <dc:format>image/svg+xml</dc:format>
    <dc:type
       rdf:resource="http://purl.org/dc/dcmitype/StillImage" />
  </cc:Work>
</rdf:RDF>
</metadata>
  <path
     style="fill:#b3897b;stroke:none;stroke-width:0.75000006px;stroke-linecap:butt;stroke-linejoin:miter;stroke-opacity:1;fill-opacity:1"
     d="m 184.21993,209.63942 -24.56265,7.81539 -42.42642,25.1209 -24.562649,10.04836 -37.402231,10.60661 -23.446173,12.28132 -10.048361,6.14066 -6.140664,31.26157 6.698907,18.42199 4.465938,6.14067 13.397813,1.67472 62.52313,-42.98465 37.40222,-22.32969 16.18903,-10.04835 10.60661,-14.51431 26.79562,-15.63078 -8.93188,16.74727 -11.72308,17.30551 -11.16485,27.91211 5.02419,29.58684 0.55824,17.86375 14.51429,4.46594 6.69891,-2.23297 5.58242,-20.65496 2.23297,2.23297 3.34946,14.5143 6.6989,3.34944 h 16.74727 l 11.16484,-33.49453 -16.18903,-63.08137 8.93188,2.79121 84.29457,55.26598 59.17368,35.72751 13.95606,-12.83958 3.34945,-5.02417 0.55825,-36.84399 -5.02419,-10.04836 -45.21762,-17.30551 -53.59125,-20.65496 -22.32968,-13.95606 -36.844,-12.83957 -8.37363,-2.23297 -11.72308,4.46594 v 11.72308 l -6.69891,2.23297 -5.58242,-10.6066 -8.37364,-5.02418 z"
     id="path10971"
     inkscape:connector-curvature="0" />
  <path
     style="fill:#eeee5a;fill-opacity:1;stroke:none;stroke-width:0.75000006px;stroke-linecap:butt;stroke-linejoin:miter;stroke-opacity:1"
     d="m 249.53427,180.05258 -16.74727,19.53848 -16.74726,8.93188 -9.49012,6.14066 -0.55824,12.83957 -8.37363,1.11648 v -7.25714 l -5.02418,-3.34946 -11.72309,-11.72308 -8.93188,-30.14508 -7.25715,-18.422 15.07254,-31.8198 3.34946,1.67472 3.90769,7.25715 5.58243,-16.74727 -2.79121,-22.329681 6.14066,-18.421996 11.16485,-11.723085 -1.67473,34.611012 5.58242,14.5143 10.04836,17.86375 7.81539,11.16485 13.95605,15.07254 7.25715,10.04836 z"
     id="path10973"
     inkscape:connector-curvature="0" />
  <path
     style="fill:#eeb15a;fill-opacity:1;stroke:none;stroke-width:0.75000006px;stroke-linecap:butt;stroke-linejoin:miter;stroke-opacity:1"
     d="m 189.24411,168.3295 c 0.001,-2.97729 -0.001,-5.95459 0,-8.93188 1.02662,-0.32163 0.54665,-2.01108 1.56063,-2.31646 0.57574,-1.04891 1.93643,-1.20893 2.17114,-2.35058 1.47734,-0.68757 1.74332,-2.34636 0.80469,-3.61719 -0.0108,-1.06737 -0.63779,-2.99424 0.57548,-3.54251 0.70799,0.27127 0.47537,-1.22133 1.08419,-1.70659 -0.13944,-1.53439 -0.25545,-3.4083 1.1363,-4.51857 1.14376,-0.4314 0.39862,1.84209 0.0567,2.46383 -0.35711,1.32975 -0.03,2.74125 -0.13174,4.10859 0.0826,1.22919 -0.18312,2.63738 0.12889,3.7546 0.49579,0.65236 0.65748,1.85145 1.47409,1.71271 0.55328,1.39784 1.54501,2.56792 2.28946,3.74244 0.68735,1.21941 0.96772,2.86845 1.24632,4.42499 -0.24516,1.81239 -0.0557,3.66922 -0.11469,5.50035 0.85706,1.46117 0.62418,3.34713 1.12757,4.92381 -0.0329,2.13349 0.004,4.26723 -0.0117,6.40081 -1.18802,0.49953 -2.6058,-0.74225 -2.33806,-1.45113 -1.53817,-0.51174 -2.46118,-2.01149 -3.84546,-2.81168 -1.27013,-1.07803 -2.3885,-2.41953 -2.89991,-3.9951 -0.42235,-0.48898 -0.58707,-1.33508 -1.5603,-1.36418 -0.39756,-1.02073 -1.78183,-0.16698 -2.75365,-0.42626 z"
     id="path10980"
     inkscape:connector-curvature="0" />
  <path
     style="fill:#eeb15a;fill-opacity:1;stroke:none;stroke-width:0.75000006px;stroke-linecap:butt;stroke-linejoin:miter;stroke-opacity:1"
     d="m 214.36502,197.91633 c 1.81395,1.55079 -0.58265,-0.65199 0.53058,-1.564 1.87165,-0.49494 5.33039,-3.60397 7.14007,-4.14395 1.58462,0.58718 3.1985,-0.41331 2.92202,-2.2409 -0.0624,-1.52953 1.44023,-2.32183 1.78274,-3.73073 0.42361,-1.41846 1.48136,-2.51439 2.91212,-2.87105 1.33528,-1.22896 2.08258,-2.81916 2.79353,-4.44698 1.28702,-1.96866 0.84782,-4.3706 0.88869,-6.58375 0.007,-3.00965 0.002,-6.01952 0.011,-9.02966 2.32006,0.10226 0.89736,3.6818 3.04256,4.0705 1.74754,1.04582 2.14828,3.36648 3.12607,5.0216 0.70637,2.4355 0.88638,5.1334 0.1216,7.56604 -1.02729,1.67753 -3.05325,2.86463 -3.00751,5.05918 -0.23598,1.7531 -2.05016,1.94213 -2.91522,3.21513 -1.50956,0.83005 -3.43714,1.1904 -4.28477,2.88465 -0.70487,1.84117 -2.35593,2.84354 -3.57371,4.22167 -1.08516,1.29152 -3.35156,0.63361 -4.39702,2.04524 -1.03187,1.56947 -3.2809,2.05668 -5.02018,1.5146 -0.72161,-0.25738 -1.4084,-0.60782 -2.0726,-0.98759 z"
     id="path10987"
     inkscape:connector-curvature="0"
     sodipodi:nodetypes="cccccccccccccccccccc" />
  <path
     style="fill:#eeb15a;stroke:none;stroke-width:0.75000006px;stroke-linecap:butt;stroke-linejoin:miter;stroke-opacity:1;fill-opacity:1"
     d="m 195.94302,205.73172 c 0.91428,-1.78268 1.81783,-3.57105 2.76109,-5.33868 0.19423,-1.77146 -0.12419,-3.56952 0.0515,-5.33063 0.88302,-1.05621 1.3519,-2.19113 1.97899,-3.35743 0.0196,-1.13626 1.23467,-2.66281 1.8978,-1.0392 -0.0803,1.4988 0.39185,3.1019 -0.31506,4.50494 -0.49316,0.84533 -1.68672,2.63651 0.0253,2.80724 0.52148,0.50333 -0.2445,4.02018 2.03549,3.30361 1.32618,0.46302 3.53815,0.83209 3.54702,2.52999 0.20372,1.89367 1.5231,3.50934 1.40504,5.41624 0.12079,1.01943 1.28112,2.19223 -0.3361,2.59367 -1.29049,0.11584 -2.17551,1.09148 -2.09142,2.15359 -0.60199,0.73436 -0.4072,1.87023 -0.90811,2.62121 -0.02,1.82978 -0.0484,3.66334 0.10209,5.4889 -1.23117,1.07552 -0.42662,3.81426 -2.85448,3.65671 -1.27495,0.16925 -4.35781,0.75067 -3.97205,-1.32263 -0.0965,-1.2151 -1.19823,-1.68746 -1.64244,-2.81464 -0.4733,-0.67387 -1.62161,-0.88236 -1.17795,-1.6362 -1.73545,-0.19899 -2.47404,-1.39908 -3.8941,-2.23266 -1.36295,-1.04227 -3.01579,-1.5936 -4.47935,-2.48833 -2.09055,-0.28036 -2.10482,-3.22692 -1.18047,-4.67619 1.04999,-0.99245 2.82796,-1.17415 4.08914,-1.44838 1.97566,0.47706 1.11661,-2.79656 2.91791,-2.41071 0.7304,-0.21028 1.37623,-0.62386 2.04014,-0.98042 z"
     id="path10995"
     inkscape:connector-curvature="0" />
  <path
     style="fill:#eeb15a;fill-opacity:1;stroke:none;stroke-width:0.75000006px;stroke-linecap:butt;stroke-linejoin:miter;stroke-opacity:1"
     d="m 169.14739,164.98004 c 1.05368,-0.28895 2.68822,0.0458 3.0454,-1.33768 0.44418,-0.97687 1.03845,-1.88779 1.39986,-2.89261 0.20559,-1.125 1.06748,-0.22959 1.17038,-1.36547 -0.0284,-0.75947 0.12214,-1.57921 -0.11999,-2.29801 -0.37504,-0.98956 -0.75617,-1.99111 -1.02639,-3.00703 -0.0148,-0.60931 -0.28783,-1.97244 0.39146,-2.06589 0.55137,0.78739 0.0568,1.9033 0.14181,2.81583 0.001,0.92065 0.80671,1.43678 0.57058,2.3283 0.26201,0.68932 1.21858,0.94798 1.32223,1.51254 0.70411,0.51059 -0.26786,-0.42092 0.75142,-0.32598 0.35547,0.5499 1.03233,0.63144 0.71178,1.44743 -0.22162,0.81579 0.89065,0.86219 0.5971,1.71695 -0.0375,2.02391 -0.0469,4.05059 0.007,6.07547 -0.5575,1.03167 -1.18213,2.02739 -1.93665,2.92173 -0.33747,0.71779 -0.21266,1.64022 -0.89095,2.01545 -0.0263,0.6706 -0.52867,0.43992 -0.74072,0.13214 -0.26147,0.66039 -0.67473,1.93677 -1.55411,1.09521 -0.21807,-0.4032 0.48181,-0.96815 -0.33895,-1.03449 -0.67739,-0.17879 0.38229,-1.09643 -0.55024,-1.12429 -0.40179,-0.46974 -0.92998,-0.90727 -0.86409,-1.73854 -0.23358,-0.97325 -1.32039,-1.16072 -1.57589,-2.07378 0.13692,-1.00478 -0.28534,-1.84657 -0.51156,-2.79728 z"
     id="path11001"
     inkscape:connector-curvature="0"
     sodipodi:nodetypes="cccccccccccccccccccccccc" />
  <path
     style="fill:#ba978c;stroke:none;stroke-width:0.75000006px;stroke-linecap:butt;stroke-linejoin:miter;stroke-opacity:1;fill-opacity:1"
     d="m 31.542023,275.40903 -10.251157,8.67405 -4.731304,24.44507 v 11.03971 l 7.885505,16.55956 15.771012,3.94275 2.365652,-15.77101 -3.942752,-24.44507 z"
     id="path11008"
     inkscape:connector-curvature="0" />
  <path
     style="fill:#ba978c;stroke:none;stroke-width:0.75000006px;stroke-linecap:butt;stroke-linejoin:miter;stroke-opacity:1;fill-opacity:1"
     d="m 216.85141,267.52352 -18.13666,-1.5771 -17.34812,8.67406 -3.1542,7.8855 -3.94275,9.4626 -8.67406,18.92522 0.78855,27.59927 1.5771,3.94275 11.82826,4.7313 h 6.3084 l 3.15421,-3.1542 3.94275,-19.71376 2.36565,0.78855 5.51986,16.55956 3.94275,3.1542 14.98246,0.78855 6.30841,-2.36565 10.25115,-36.27332 z"
     id="path11010"
     inkscape:connector-curvature="0"
     sodipodi:nodetypes="ccccccccccccccccccc" />
  <path
     style="fill:#ba978c;stroke:none;stroke-width:0.75000006px;stroke-linecap:butt;stroke-linejoin:miter;stroke-opacity:1;fill-opacity:1"
     d="m 382.44703,281.71743 -11.82826,4.7313 0.78855,13.40536 -6.3084,8.67406 v 30.75347 l 7.8855,3.1542 14.19392,-17.34811 2.36565,-29.96492 z"
     id="path11012"
     inkscape:connector-curvature="0" />
  <g
     transform="translate(0.000000,400.000000) scale(0.100000,-0.100000)"
     fill="#000000"
     stroke="none"
     id="g10420">
    <path
       d="M2037 3573 c-13 -21 -17 -104 -8 -141 11 -41 11 -42 -34 -97 -82 -101 -116 -187 -116 -292 0 -71 -1 -73 -25 -73 -31 0 -31 -19 0 -73 24 -41 32 -80 28 -142 l-2 -30 -25 41 c-26 43 -64 67 -91 57 -13 -5 -15 -15 -10 -53 5 -39 2 -54 -23 -101 -74 -136 -93 -181 -98 -232 -7 -70 9 -142 52 -231 19 -40 48 -117 64 -172 16 -54 32 -106 35 -115 6 -13 -11 -19 -91 -37 -107 -24 -111 -26 -323 -161 -80 -51 -199 -119 -265 -151 -112 -56 -128 -61 -235 -74 -142 -18 -170 -28 -450 -168 -213 -107 -225 -115 -228 -143 -2 -16 -9 -36 -15 -44 -7 -8 -15 -59 -19 -115 -3 -56 -9 -120 -13 -144 -6 -35 -4 -51 12 -80 12 -20 24 -59 28 -87 14 -102 50 -132 165 -142 l68 -6 59 51 c69 60 214 156 543 364 135 85 301 190 370 233 123 78 208 153 309 274 39 47 95 84 167 111 l25 10 -33 -62 c-18 -34 -57 -85 -86 -114 -43 -43 -60 -71 -97 -160 -25 -60 -59 -129 -76 -153 -30 -42 -30 -46 -23 -120 3 -42 18 -110 31 -151 15 -45 27 -109 30 -160 7 -123 16 -145 69 -170 65 -32 156 -31 189 0 27 25 45 76 45 127 0 17 4 34 9 37 10 6 21 -41 21 -88 0 -17 7 -41 15 -53 32 -46 196 -53 263 -13 37 22 77 121 124 304 l33 124 -23 48 c-19 43 -135 464 -129 470 1 1 38 -23 82 -54 44 -32 114 -78 155 -104 41 -26 116 -80 165 -122 110 -92 330 -223 790 -471 52 -28 115 -73 151 -107 36 -34 73 -60 91 -64 43 -8 93 18 120 64 13 20 38 54 55 75 28 33 34 49 40 110 3 40 9 101 14 136 10 93 -12 258 -40 286 -12 11 -86 45 -166 74 -80 30 -190 76 -245 104 -59 29 -145 62 -208 78 -59 16 -167 52 -240 80 -107 42 -142 61 -186 101 -73 66 -131 94 -280 132 -69 18 -146 43 -171 56 -50 25 -100 68 -100 85 0 6 19 26 43 43 74 54 159 145 183 197 49 105 25 174 -109 314 -137 144 -179 246 -157 383 17 100 -4 116 -63 48 -40 -47 -54 -50 -67 -14 -8 21 -7 29 5 38 25 18 97 242 103 317 6 85 -8 126 -68 198 -26 31 -55 71 -64 89 -15 30 -39 42 -49 25z m-13 -597 c13 -42 37 -93 53 -114 16 -21 33 -61 39 -92 7 -30 33 -114 59 -185 62 -172 79 -253 64 -306 -14 -46 -72 -117 -106 -130 -54 -20 -134 57 -178 174 -14 37 -23 47 -40 47 -34 0 -50 -49 -49 -155 0 -85 13 -138 59 -247 6 -15 2 -18 -19 -18 -57 0 -104 94 -113 225 -7 90 13 167 77 305 51 110 80 205 80 261 l0 34 21 -30 c83 -123 122 -248 123 -392 0 -57 3 -103 7 -103 4 0 17 12 28 26 17 21 21 41 21 99 0 110 -31 212 -119 390 -43 88 -84 177 -91 199 -17 53 -8 140 21 206 l24 55 7 -86 c4 -47 18 -121 32 -163z m-191 -353 c1 -38 -7 -65 -33 -114 -18 -35 -43 -95 -55 -133 -25 -77 -34 -74 -42 14 -7 71 9 122 66 209 22 35 41 71 41 80 0 11 3 12 11 4 6 -6 12 -33 12 -60z m622 -289 c17 -37 19 -91 5 -129 -21 -56 -223 -235 -265 -235 -6 0 -30 -16 -52 -35 -23 -19 -50 -35 -61 -35 -31 0 -54 -36 -60 -92 l-5 -53 -11 50 c-11 48 -12 50 -49 53 -47 4 -47 19 -2 38 20 8 38 21 42 29 3 8 -9 50 -26 93 -37 95 -54 160 -49 198 l3 29 22 -40 c22 -42 69 -89 116 -119 16 -10 38 -33 49 -52 12 -21 28 -34 40 -34 21 0 21 8 3 67 -7 23 14 48 83 100 73 55 82 171 27 353 -10 33 169 -142 190 -186z m-162 -504 c82 -44 153 -71 271 -101 103 -26 162 -57 236 -124 60 -53 127 -86 203 -100 40 -8 41 -25 2 -25 -13 0 -27 -5 -31 -11 -16 -27 24 -37 178 -46 l157 -10 133 -67 c73 -36 180 -82 238 -101 l105 -34 -46 -19 c-55 -24 -62 -33 -69 -89 l-5 -41 -153 47 c-206 65 -259 93 -369 195 -105 97 -125 109 -216 130 -104 24 -173 56 -323 151 -141 90 -244 143 -322 166 -38 11 -45 10 -60 -4 -20 -20 -11 -30 43 -47 22 -7 88 -37 146 -66 58 -30 110 -54 115 -54 5 0 34 -20 64 -45 75 -62 197 -120 310 -150 89 -23 98 -27 140 -74 25 -27 61 -57 80 -67 19 -9 60 -38 90 -64 67 -58 79 -64 160 -85 119 -31 334 -115 293 -115 -20 0 -27 -35 -33 -161 l-5 -127 -130 78 c-71 42 -245 141 -385 220 -140 79 -259 148 -265 153 -5 5 35 -14 91 -41 122 -61 221 -102 246 -102 14 0 18 6 16 20 -2 15 -55 45 -218 123 -206 100 -218 107 -297 183 -100 98 -190 148 -247 141 -35 -5 -47 0 -100 38 -88 63 -123 103 -149 170 -21 54 -27 61 -63 71 -35 10 -39 14 -37 43 2 46 19 61 69 61 23 0 46 5 49 10 8 14 4 15 88 -30z m-433 1 c5 -11 23 -22 39 -26 38 -8 53 -27 49 -62 -2 -23 -16 -35 -87 -74 -107 -58 -202 -133 -268 -209 -77 -90 -145 -144 -278 -223 -66 -38 -174 -104 -240 -145 -66 -41 -131 -81 -145 -89 l-25 -15 25 19 c48 36 80 65 80 73 0 10 -90 -19 -139 -45 -18 -9 -52 -31 -77 -50 -24 -18 -85 -57 -136 -86 -51 -28 -112 -65 -136 -81 -49 -34 -72 -31 -72 9 0 47 25 69 148 128 152 74 401 220 523 306 53 37 126 84 162 104 63 35 80 56 57 70 -15 9 -165 -73 -218 -119 -26 -23 -68 -50 -94 -60 -26 -9 -97 -49 -159 -87 -129 -81 -415 -227 -425 -216 -4 3 -1 13 6 22 16 19 194 108 306 153 64 25 92 44 128 82 50 53 55 70 30 91 -15 12 -19 10 -33 -11 -36 -57 -83 -88 -213 -144 -73 -31 -159 -73 -192 -92 -32 -19 -61 -32 -65 -29 -3 3 -7 38 -9 78 -3 39 -11 81 -18 93 -8 12 -12 28 -9 37 7 16 230 122 358 169 59 21 116 32 223 43 141 14 290 52 305 77 12 19 -2 40 -22 35 -11 -3 -19 -4 -19 -2 0 1 39 26 88 56 48 29 120 75 160 101 87 59 139 82 252 113 105 29 127 30 140 6z m263 -148 c2 -5 7 -21 10 -38 6 -27 5 -28 -5 -7 -13 26 -48 30 -48 5 0 -10 13 -72 29 -138 22 -88 26 -122 18 -127 -7 -4 -46 -8 -87 -8 -56 0 -86 -5 -115 -20 -22 -11 -41 -20 -42 -20 -2 0 11 24 28 53 73 125 91 192 47 174 -8 -2 -56 -74 -108 -158 -89 -144 -95 -156 -92 -201 3 -54 -6 -76 -60 -137 -21 -24 -38 -53 -38 -65 0 -17 -2 -18 -10 -6 -17 26 -11 79 14 118 13 21 39 74 57 117 21 51 61 116 111 182 43 56 94 133 115 170 54 100 68 113 124 113 26 0 50 -3 52 -7z m-40 -377 c37 -15 70 -71 137 -231 23 -56 55 -114 72 -132 27 -28 30 -36 24 -72 -10 -68 -78 -263 -98 -283 -14 -14 -33 -18 -90 -18 -40 0 -79 4 -86 9 -8 5 -17 35 -22 67 -4 33 -16 94 -25 136 l-18 76 27 56 c21 43 26 67 24 108 -3 45 -6 53 -23 53 -16 0 -20 -6 -18 -30 2 -16 0 -37 -4 -45 -5 -8 -10 32 -13 90 -5 97 -7 105 -25 105 -19 0 -20 -7 -21 -150 -1 -98 -10 -200 -24 -290 -25 -163 -27 -170 -46 -190 -30 -30 -124 -10 -142 31 -14 29 -15 182 -3 297 8 78 15 92 83 178 12 16 22 47 25 75 9 101 12 104 143 150 77 28 81 28 123 10z m-1766 -134 c7 -5 16 -30 19 -58 4 -27 15 -80 26 -119 20 -75 36 -321 21 -341 -14 -19 -48 -25 -68 -10 -13 10 -19 28 -21 72 -2 32 -6 69 -9 82 -6 25 -33 30 -41 7 -5 -11 -11 -6 -24 18 -15 27 -17 42 -10 73 5 21 10 60 10 87 0 43 2 47 25 47 38 0 49 31 32 90 -8 27 -12 52 -9 55 8 7 35 6 49 -3z m3483 -61 c0 -23 7 -34 30 -48 39 -23 44 -45 31 -132 -6 -38 -11 -89 -11 -113 0 -25 -7 -54 -17 -68 l-18 -25 -7 45 c-3 25 -2 73 4 108 11 66 3 90 -24 79 -26 -9 -42 -88 -39 -194 2 -114 -8 -146 -42 -141 -21 3 -22 8 -25 146 l-3 143 36 31 c39 35 41 46 23 114 -12 44 -11 47 11 65 34 28 51 24 51 -10z"
       id="path10414" />
    <path
       d="M1737 1759 c-123 -61 -287 -180 -287 -206 0 -41 63 -20 134 44 28 25 88 64 133 85 88 41 143 81 143 104 0 24 -41 15 -123 -27z"
       id="path10416" />
    <path
       d="M1245 1482 c-206 -79 -295 -124 -295 -150 0 -24 28 -23 76 1 27 14 120 53 207 87 122 48 157 66 155 79 -5 27 -38 23 -143 -17z"
       id="path10418" />
  </g>
</svg>
