<?xml version="1.0" encoding="utf-8"?>
<!-- Uploaded to: SVG Repo, www.svgrepo.com, Generator: SVG Repo Mixer Tools -->
<svg width="800px" height="800px" viewBox="-5.1 0 264.999 264.999" xmlns="http://www.w3.org/2000/svg"><defs><style>.a{fill:#211715;}.b{fill:#ffffff;}.c{fill:#c3ad9f;}.d{fill:#a98a75;}</style></defs><path class="a" d="M0,55.073v68.984c0,3.088,4.8,3.094,4.8,0V55.073c0-3.088-4.8-3.094-4.8,0Z"/><path class="a" d="M27.266,37.15V79.419c0,3.089,4.8,3.094,4.8,0V37.15c0-3.089-4.8-3.094-4.8,0Z"/><path class="a" d="M54.531,18.213V71.141c0,3.089,4.8,3.094,4.8,0v-1.19c0-3.089-4.8-3.094-4.8,0v1.19c0,3.089,4.8,3.094,4.8,0V18.213c0-3.089-4.8-3.094-4.8,0Z"/><path class="a" d="M81.8,24.637v27.73c0,3.088,4.8,3.093,4.8,0V24.637c0-3.088-4.8-3.093-4.8,0Z"/><path class="a" d="M109.063,13.14V35.458c0,3.089,4.8,3.094,4.8,0V13.14c0-3.089-4.8-3.094-4.8,0Z"/><path class="a" d="M136.328,2.318V32.077c0,3.088,4.8,3.094,4.8,0V2.318c0-3.088-4.8-3.093-4.8,0Z"/><path class="a" d="M163.594,9.758V54.867c0,3.089,4.8,3.094,4.8,0v-2.5c0-3.089-4.8-3.094-4.8,0v2.5h4.8V9.758c0-3.088-4.8-3.094-4.8,0Z"/><path class="a" d="M190.86,32.078V66.214c0,3.089,4.8,3.094,4.8,0V32.078c0-3.088-4.8-3.094-4.8,0Z"/><path class="a" d="M218.125,26.667V91.783h4.8V86.9c0-3.089-4.8-3.094-4.8,0v4.881c0,3.089,4.8,3.094,4.8,0V26.667c0-3.089-4.8-3.094-4.8,0Z"/><path class="a" d="M245.391,41.285v70.192c0,3.088,4.8,3.093,4.8,0v-1.841c0-3.088-4.8-3.093-4.8,0v1.841h4.8V41.285c0-3.088-4.8-3.093-4.8,0Z"/><path class="b" d="M35.977,125.182,2.815,153.007H31.8L125.66,74.246c28.042,23.534,64.98,54.529,99.565,83.549H252.4C207.744,120.315,160.788,80.91,124.76,50.676,99.219,72.112,67.89,98.4,35.977,125.182Z"/><path class="c" d="M226.047,225.653c0-18.97,0-43.114,0-67.167-34.821-29.218-72.124-60.519-100.388-84.24L24.941,158.758c0,51.228,0,103.821,0,103.821l201.1-.006Z"/><path class="d" d="M24.945,187.824v-4.038H69.4v78.791l-44.457,0Z"/><path class="a" d="M22.541,158.758q0,28.734,0,57.468,0,19.647,0,39.295v7.058c0,3.088,4.8,3.094,4.8,0V241.7q0-24.759,0-49.517,0-16.713,0-33.425c0-3.088-4.8-3.093-4.8,0Z"/><path class="a" d="M228.447,262.573V160.725c0-1.207.255-2.68-.515-3.693a15.859,15.859,0,0,0-2.508-2.191l-2.507-2.1-5.033-4.223-10.116-8.488-39.849-33.439L131.469,76l-4.112-3.451a2.483,2.483,0,0,0-3.394,0L87.209,103.388,46.471,137.571l-23.227,19.49a2.419,2.419,0,0,0,0,3.394,2.451,2.451,0,0,0,3.394,0L67.9,125.835,107.383,92.7l19.974-16.76h-3.394q18.294,15.353,36.589,30.705l40.564,34.039,23.234,19.5-.7-1.7q0,25.86,0,51.722v52.365c0,3.088,4.8,3.093,4.8,0Z"/><path class="a" d="M24.945,264.979H217.878c2.606,0,5.22.06,7.826,0,.114,0,.229,0,.343,0,3.088,0,3.093-4.8,0-4.8H33.114c-2.606,0-5.221-.06-7.826,0-.114,0-.229,0-.343,0-3.089,0-3.094,4.8,0,4.8Z"/><path class="b" d="M125.106,207.055v-42.28h53.93v42.28Z"/><path class="a" d="M152.663,98.408q-4.653,4.626-9.006,9.536a2.449,2.449,0,0,0,0,3.394l3.832,3.865v-3.394q-3.411,3.945-6.687,8a2.472,2.472,0,0,0,0,3.394,2.417,2.417,0,0,0,3.394,0q3.276-4.057,6.687-8a2.453,2.453,0,0,0,0-3.394l-3.832-3.865v3.394q4.353-4.909,9.006-9.536c2.193-2.181-1.2-5.575-3.394-3.394Z"/><path class="a" d="M76.874,183.786v78.793c0,3.088,4.8,3.094,4.8,0V183.786c0-3.088-4.8-3.093-4.8,0Z"/><path class="a" d="M24.945,186.186H79.274c3.088,0,3.093-4.8,0-4.8H24.945c-3.089,0-3.094,4.8,0,4.8Z"/><path class="a" d="M67,183.786v78.793c0,3.088,4.8,3.094,4.8,0V183.786c0-3.088-4.8-3.093-4.8,0Z"/><path class="a" d="M4.512,154.7l50.261-42.173L102.351,72.6l24.106-20.23h-3.394l46.521,39.04Q195.3,113,221.022,134.581l29.681,24.91a2.465,2.465,0,0,0,3.394,0,2.419,2.419,0,0,0,0-3.394L201.411,111.88,151.7,70.158,126.457,48.979a2.483,2.483,0,0,0-3.394,0L78.716,86.2,29.489,127.505,1.118,151.31a2.419,2.419,0,0,0,0,3.394,2.451,2.451,0,0,0,3.394,0Z"/><path class="a" d="M43.993,166.98a34.027,34.027,0,0,1,4.553-4.207c.4-.3.8-.586,1.215-.866.516-.352.908-.293-.149-.471l-.681-.114-.172-1.378c-.05-.01-.794,1.207-.878,1.34a3.868,3.868,0,0,0-.681,1.968,3.683,3.683,0,0,0,4.338,3.694c1.9-.416,3.3-2.4,4.751-3.589.216-.178,1.061-.616,1.154-.864l-1.318-.226-.344-.994s-.289.7-.3.715c-.456,1.07-.95,2.124-1.468,3.166a17.181,17.181,0,0,0-1.46,2.994,2.921,2.921,0,0,0,1.667,3.428c2,.834,3.5-.83,4.926-1.986q2.017-1.639,4.046-3.265c3.18-2.545,6.377-5.078,9.693-7.445a2.469,2.469,0,0,0,.861-3.284,2.42,2.42,0,0,0-3.284-.861c-2.976,2.125-5.86,4.381-8.726,6.652q-2.106,1.669-4.2,3.36a20.966,20.966,0,0,1-3.329,2.613l1.849-.242-.277-.05,1.059.618-.214-.18.617,1.059-.1-.264v1.276a14.672,14.672,0,0,1,1.318-2.627q.608-1.257,1.16-2.539c.791-1.834,1.559-3.745-.023-5.431a3.724,3.724,0,0,0-4.959-.371,25.8,25.8,0,0,0-2.452,1.948c-.182.159-2.256,1.793-2.2,2.025a.692.692,0,0,1,.935-.114q1.331-.216.961,1.429c.2-.039.628-.917.765-1.144a3.984,3.984,0,0,0,.7-2.754,3.686,3.686,0,0,0-3.72-3.125c-1.88.07-3.628,1.8-5.014,2.913a36.348,36.348,0,0,0-4.028,3.8c-2.082,2.274,1.3,5.678,3.394,3.394Z"/><path class="a" d="M127.506,207.055v-42.28l-2.4,2.4h53.93l-2.4-2.4v42.28l2.4-2.4h-53.93c-3.089,0-3.094,4.8,0,4.8h53.93a2.435,2.435,0,0,0,2.4-2.4v-42.28a2.435,2.435,0,0,0-2.4-2.4h-53.93a2.435,2.435,0,0,0-2.4,2.4v42.28C122.706,210.144,127.506,210.149,127.506,207.055Z"/><path class="a" d="M149.671,165.369v40.8c0,3.089,4.8,3.094,4.8,0v-40.8c0-3.089-4.8-3.094-4.8,0Z"/><path class="a" d="M216.47,199.448c-4.052,3.07-8.114,6.128-12.148,9.223q-3.192,2.451-6.358,4.934c-1.944,1.531-4.552,2.987-4.976,5.632-.313,1.95.238,4.225.422,6.182q.34,3.63.672,7.26.318,3.453.643,6.9.147,1.548.3,3.1c.1,1,.271,1.2-.508,1.783-4.582,3.409-9.256,6.694-13.895,10.025a2.469,2.469,0,0,0-.861,3.284,2.419,2.419,0,0,0,3.284.861c4.235-3.041,8.493-6.05,12.694-9.138,1.976-1.452,4.128-2.793,4.192-5.53a56.693,56.693,0,0,0-.6-6.422c-.443-4.733-.867-9.467-1.32-14.2-.088-.924-.195-1.847-.27-2.772-.019-.231.1-.87-.056-.606a6.3,6.3,0,0,1,1.47-1.219q3-2.4,6.047-4.745c4.538-3.5,9.12-6.947,13.689-10.409a2.478,2.478,0,0,0,.861-3.283,2.416,2.416,0,0,0-3.284-.861Z"/><path class="a" d="M196.279,228.041c4.758,2.9,9.639,5.717,14.2,8.921l-1.189-2.072c.1,3.4.386,6.788.53,10.183a2.45,2.45,0,0,0,2.4,2.4,2.424,2.424,0,0,0,2.4-2.4c-.105-2.476-.258-4.95-.4-7.424-.049-.875-.068-1.755-.13-2.63a3.38,3.38,0,0,0-1.891-2.676c-3.034-2.012-6.148-3.91-9.244-5.825q-2.125-1.317-4.259-2.622c-2.645-1.613-5.059,2.537-2.423,4.145Z"/><path class="a" d="M40.9,241.416H53.447a2.435,2.435,0,0,0,2.4-2.4v-1.072a2.435,2.435,0,0,0-2.4-2.4H40.9a2.434,2.434,0,0,0-2.4,2.4v1.072a2.4,2.4,0,1,0,4.8,0v-1.072l-2.4,2.4H53.447l-2.4-2.4v1.072l2.4-2.4H40.9a2.4,2.4,0,0,0,0,4.8Z"/><path class="a" d="M35.758,217.741a3.388,3.388,0,0,0-3.455,3.434,3.332,3.332,0,0,0,3.455,3.5,3.3,3.3,0,0,0,3.455-3.5A3.385,3.385,0,0,0,35.758,217.741Z"/></svg>