<?xml version="1.0" encoding="utf-8"?>

<!DOCTYPE svg PUBLIC "-//W3C//DTD SVG 1.1//EN" "http://www.w3.org/Graphics/SVG/1.1/DTD/svg11.dtd">
<!-- Uploaded to: SVG Repo, www.svgrepo.com, Generator: SVG Repo Mixer Tools -->
<svg height="800px" width="800px" version="1.1" id="_x32_" xmlns="http://www.w3.org/2000/svg" xmlns:xlink="http://www.w3.org/1999/xlink" 
	 viewBox="0 0 512 512"  xml:space="preserve">
<style type="text/css">
	.st0{fill:#000000;}
</style>
<g>
	<path class="st0" d="M489.759,154.358c-0.714-25.058-12.618-41.849-28.727-51.582c1.365-1.116,2.692-2.319,3.979-3.59
		c10.237-10.246,15.426-23.794,15.41-37.211c0.016-13.417-5.173-26.958-15.41-37.196c-10.246-10.253-23.786-15.426-37.211-15.426
		c-13.417,0-26.966,5.173-37.211,15.426c-1.264,1.272-2.474,2.598-3.591,3.971c-9.732-16.116-26.508-28.013-51.582-28.727
		c-29.804-0.853-49.053,22.305-53.769,45.68l-0.248-0.481c-29.766-26.454-98.115-2.202-86.536,49.046
		c3.234,14.379,14.092,23.119,25.887,26.121c-16.232,7.561-27.113,35.83-14.316,58.213c13.223,23.158,26.454,46.308,16.528,56.227
		c-1.551,1.575-6.903,6.91-14.783,14.79c-4.63-4.505-12.044-4.49-16.627,0.086c-4.591,4.599-4.615,12.005-0.093,16.643
		c-29.657,29.657-56.112,56.096-86.956,86.947c-4.342-2.055-9.678-1.333-13.277,2.257l-65.58,65.596
		c-4.568,4.56-4.568,11.959,0,16.535l26.454,26.446c4.576,4.575,11.967,4.575,16.542,0l65.588-65.581
		c3.592-3.591,4.32-8.927,2.249-13.27c30.86-30.844,57.29-57.29,86.963-86.948c4.63,4.506,12.029,4.483,16.628-0.101
		c4.591-4.583,4.606-11.99,0.093-16.636c7.88-7.88,13.223-13.216,14.782-14.782c9.927-9.927,33.077,3.319,56.228,16.534
		c22.39,12.796,50.659,1.908,58.213-14.324c3.009,11.804,11.75,22.654,26.113,25.903c51.263,11.579,75.523-56.778,49.053-86.543
		l-0.473-0.249C467.461,203.42,490.611,184.17,489.759,154.358z M413.863,48.045c3.87-3.87,8.856-5.754,13.936-5.785
		c5.072,0.031,10.067,1.915,13.945,5.785c3.862,3.862,5.762,8.85,5.77,13.929c-0.008,5.087-1.908,10.067-5.77,13.944
		c-3.878,3.877-8.857,5.763-13.945,5.77c-5.072-0.007-10.066-1.892-13.936-5.77c-3.863-3.878-5.763-8.857-5.778-13.944
		C408.101,56.895,410.001,51.923,413.863,48.045z M248.329,181.921c-22.173-8.066-26.462-35.287-15.441-35.287
		c11.028,0.015,16.535-7.709,16.535-7.709c0-9.167-5.072-15.263-11.385-18.241c9.904-2.358,18-9.291,19.66-20.894
		c2.195-15.433-12.122-28.665-23.151-20.948c-9.725,6.802-1.993,17.566,2.598,22.422c-6.336,6.949-18.07,2.086-19.683-11.944
		c-3.32-28.664,41.337-49.069,63.936-20.956l0.59,0.078c2.791,10.469,9.554,18.985,20.909,22.537
		c17.636,5.499,35.822-10.486,28.113-21.513c-7.724-11.014-14.339,1.109-24.259-8.81c-9.927-9.927,10.423-42.95,34.171-35.28
		c34.179,11.036,37.49,50.729,22.6,71.102c-12.106,16.573-29.075,36.396-42.725,50.992l-5.126-5.134
		c-4.622-4.63-12.114-4.63-16.744,0c-4.622,4.623-4.622,12.114,0,16.737l5.041,5.041
		C289.379,176.803,268.703,189.328,248.329,181.921z M429.125,183.022c-9.919-9.919,2.203-16.527-8.818-24.243
		c-11.028-7.709-27.005,10.469-21.506,28.121c3.552,11.33,12.083,18.102,22.53,20.878l0.077,0.605
		c28.114,22.6,7.717,67.248-20.947,63.936c-14.038-1.613-18.9-13.354-11.936-19.683c4.84,4.591,15.604,12.316,22.414,2.598
		c7.709-11.036-5.514-25.353-20.94-23.151c-11.618,1.66-18.544,9.756-20.902,19.652c-2.985-6.297-9.081-11.377-18.24-11.377
		c0,0-7.717,5.499-7.717,16.528c0,11.028-27.215,6.747-35.288-15.418c-7.399-20.397,5.118-41.074,17.807-55.654l5.048,5.041
		c4.623,4.615,12.114,4.615,16.744,0c4.615-4.622,4.615-12.13,0-16.752l-5.126-5.118c14.573-13.649,34.396-30.626,50.978-42.732
		c20.382-14.876,60.082-11.564,71.095,22.607C472.069,172.607,439.053,192.95,429.125,183.022z"/>
	<path class="st0" d="M144.149,408.476l-63.386,63.378l39.189,39.181c1.287,1.288,3.388,1.288,4.684,0l16.256-16.255
		c1.295-1.295,1.295-3.398,0-4.7l-16.806-16.799c-1.296-1.302-1.296-3.397,0-4.692l16.806-16.806c1.295-1.296,3.389-1.296,4.684,0
		l16.806,16.814c1.295,1.287,3.398,1.287,4.685-0.008l16.256-16.256c1.294-1.295,1.294-3.388,0-4.684L144.149,408.476z"/>
</g>
</svg>